<mxfile host="Electron" modified="2024-04-05T11:38:52.059Z" agent="Mozilla/5.0 (Windows NT 10.0; Win64; x64) AppleWebKit/537.36 (KHTML, like Gecko) draw.io/24.0.4 Chrome/120.0.6099.109 Electron/28.1.0 Safari/537.36" etag="vTM1B2700GW3wRZ7NXaQ" version="24.0.4" type="device">
  <diagram id="23iRSUPoRavnBvh4doch" name="Page-1">
    <mxGraphModel dx="1434" dy="836" grid="1" gridSize="10" guides="1" tooltips="1" connect="1" arrows="1" fold="1" page="1" pageScale="1" pageWidth="827" pageHeight="1169" math="0" shadow="0">
      <root>
        <mxCell id="0" />
        <mxCell id="1" parent="0" />
        <mxCell id="SKF5G5WxIKWwgrvv22xS-1" value="Start" style="rounded=1;whiteSpace=wrap;html=1;strokeColor=#788AA3;fontColor=#46495D;fillColor=#B2C9AB;fontSize=20;arcSize=50;fontFamily=Comic Sans MS;" vertex="1" parent="1">
          <mxGeometry x="354" y="160" width="120" height="40" as="geometry" />
        </mxCell>
        <mxCell id="SKF5G5WxIKWwgrvv22xS-5" value="add node in queue" style="rounded=1;whiteSpace=wrap;html=1;strokeColor=#788AA3;fontColor=#46495D;fillColor=#B2C9AB;fontSize=16;fontFamily=Comic Sans MS;" vertex="1" parent="1">
          <mxGeometry x="336" y="240" width="156" height="40" as="geometry" />
        </mxCell>
        <mxCell id="SKF5G5WxIKWwgrvv22xS-12" value="" style="endArrow=classic;html=1;rounded=0;strokeColor=#788AA3;fontColor=#46495D;fillColor=#B2C9AB;exitX=0.5;exitY=1;exitDx=0;exitDy=0;entryX=0.5;entryY=0;entryDx=0;entryDy=0;" edge="1" parent="1" source="SKF5G5WxIKWwgrvv22xS-1" target="SKF5G5WxIKWwgrvv22xS-5">
          <mxGeometry width="50" height="50" relative="1" as="geometry">
            <mxPoint x="360" y="280" as="sourcePoint" />
            <mxPoint x="410" y="230" as="targetPoint" />
          </mxGeometry>
        </mxCell>
        <mxCell id="SKF5G5WxIKWwgrvv22xS-13" value="queue not empty" style="strokeWidth=2;html=1;shape=mxgraph.flowchart.loop_limit;whiteSpace=wrap;strokeColor=#788AA3;fontColor=#46495D;fillColor=#B2C9AB;fontSize=16;fontFamily=Comic Sans MS;" vertex="1" parent="1">
          <mxGeometry x="338" y="320" width="150" height="40" as="geometry" />
        </mxCell>
        <mxCell id="SKF5G5WxIKWwgrvv22xS-15" value="&lt;h1&gt;Wide walk binary tree&lt;/h1&gt;" style="text;html=1;align=center;verticalAlign=middle;resizable=0;points=[];autosize=1;strokeColor=none;fillColor=none;fontColor=#46495D;" vertex="1" parent="1">
          <mxGeometry x="279" y="30" width="270" height="70" as="geometry" />
        </mxCell>
        <mxCell id="SKF5G5WxIKWwgrvv22xS-16" value="queue empty" style="strokeWidth=2;html=1;shape=mxgraph.flowchart.loop_limit;whiteSpace=wrap;strokeColor=#788AA3;fontColor=#46495D;fillColor=#B2C9AB;fontSize=16;fontFamily=Comic Sans MS;flipV=1;" vertex="1" parent="1">
          <mxGeometry x="337" y="800" width="150" height="40" as="geometry" />
        </mxCell>
        <mxCell id="SKF5G5WxIKWwgrvv22xS-17" value="" style="endArrow=classic;html=1;rounded=0;strokeColor=#788AA3;fontColor=#46495D;fillColor=#B2C9AB;exitX=0.5;exitY=1;exitDx=0;exitDy=0;" edge="1" parent="1" source="SKF5G5WxIKWwgrvv22xS-5" target="SKF5G5WxIKWwgrvv22xS-13">
          <mxGeometry width="50" height="50" relative="1" as="geometry">
            <mxPoint x="414" y="360" as="sourcePoint" />
            <mxPoint x="390" y="370" as="targetPoint" />
          </mxGeometry>
        </mxCell>
        <mxCell id="SKF5G5WxIKWwgrvv22xS-19" value="print node.ch" style="shape=parallelogram;perimeter=parallelogramPerimeter;whiteSpace=wrap;html=1;fixedSize=1;strokeColor=#788AA3;fontColor=#46495D;fillColor=#B2C9AB;fontSize=16;fontFamily=Comic Sans MS;" vertex="1" parent="1">
          <mxGeometry x="337" y="480" width="150" height="40" as="geometry" />
        </mxCell>
        <mxCell id="SKF5G5WxIKWwgrvv22xS-20" value="left child&amp;nbsp;&lt;div&gt;not null&lt;/div&gt;" style="rhombus;whiteSpace=wrap;html=1;strokeColor=#788AA3;fontColor=#46495D;fillColor=#B2C9AB;fontSize=16;fontFamily=Comic Sans MS;" vertex="1" parent="1">
          <mxGeometry x="352" y="560" width="120" height="80" as="geometry" />
        </mxCell>
        <mxCell id="SKF5G5WxIKWwgrvv22xS-22" value="left child add to queue" style="rounded=1;whiteSpace=wrap;html=1;strokeColor=#788AA3;fontColor=#46495D;fillColor=#B2C9AB;fontSize=16;fontFamily=Comic Sans MS;" vertex="1" parent="1">
          <mxGeometry x="188" y="580" width="120" height="40" as="geometry" />
        </mxCell>
        <mxCell id="SKF5G5WxIKWwgrvv22xS-23" value="right child&amp;nbsp;&lt;div&gt;not null&lt;/div&gt;" style="rhombus;whiteSpace=wrap;html=1;strokeColor=#788AA3;fontColor=#46495D;fillColor=#B2C9AB;fontSize=16;fontFamily=Comic Sans MS;" vertex="1" parent="1">
          <mxGeometry x="352" y="680" width="120" height="80" as="geometry" />
        </mxCell>
        <mxCell id="SKF5G5WxIKWwgrvv22xS-24" value="right child add to queue" style="rounded=1;whiteSpace=wrap;html=1;strokeColor=#788AA3;fontColor=#46495D;fillColor=#B2C9AB;fontSize=16;fontFamily=Comic Sans MS;" vertex="1" parent="1">
          <mxGeometry x="518" y="700" width="120" height="40" as="geometry" />
        </mxCell>
        <mxCell id="SKF5G5WxIKWwgrvv22xS-25" value="" style="endArrow=classic;html=1;rounded=0;strokeColor=#788AA3;fontColor=#46495D;fillColor=#B2C9AB;exitX=0.5;exitY=1;exitDx=0;exitDy=0;entryX=0.5;entryY=0;entryDx=0;entryDy=0;" edge="1" parent="1" source="SKF5G5WxIKWwgrvv22xS-20" target="SKF5G5WxIKWwgrvv22xS-23">
          <mxGeometry width="50" height="50" relative="1" as="geometry">
            <mxPoint x="328" y="680" as="sourcePoint" />
            <mxPoint x="378" y="630" as="targetPoint" />
          </mxGeometry>
        </mxCell>
        <mxCell id="SKF5G5WxIKWwgrvv22xS-27" value="" style="endArrow=classic;html=1;rounded=0;strokeColor=#788AA3;fontColor=#46495D;fillColor=#B2C9AB;exitX=0.5;exitY=1;exitDx=0;exitDy=0;entryX=0.5;entryY=0;entryDx=0;entryDy=0;" edge="1" parent="1" source="SKF5G5WxIKWwgrvv22xS-19" target="SKF5G5WxIKWwgrvv22xS-20">
          <mxGeometry width="50" height="50" relative="1" as="geometry">
            <mxPoint x="328" y="680" as="sourcePoint" />
            <mxPoint x="378" y="630" as="targetPoint" />
          </mxGeometry>
        </mxCell>
        <mxCell id="SKF5G5WxIKWwgrvv22xS-28" value="" style="endArrow=classic;html=1;rounded=0;strokeColor=#788AA3;fontColor=#46495D;fillColor=#B2C9AB;exitX=1;exitY=0.5;exitDx=0;exitDy=0;entryX=0;entryY=0.5;entryDx=0;entryDy=0;" edge="1" parent="1" source="SKF5G5WxIKWwgrvv22xS-23" target="SKF5G5WxIKWwgrvv22xS-24">
          <mxGeometry width="50" height="50" relative="1" as="geometry">
            <mxPoint x="368" y="670" as="sourcePoint" />
            <mxPoint x="418" y="620" as="targetPoint" />
          </mxGeometry>
        </mxCell>
        <mxCell id="SKF5G5WxIKWwgrvv22xS-29" value="" style="endArrow=classic;html=1;rounded=0;strokeColor=#788AA3;fontColor=#46495D;fillColor=#B2C9AB;exitX=0;exitY=0.5;exitDx=0;exitDy=0;entryX=1;entryY=0.5;entryDx=0;entryDy=0;" edge="1" parent="1" source="SKF5G5WxIKWwgrvv22xS-20" target="SKF5G5WxIKWwgrvv22xS-22">
          <mxGeometry width="50" height="50" relative="1" as="geometry">
            <mxPoint x="368" y="670" as="sourcePoint" />
            <mxPoint x="418" y="620" as="targetPoint" />
          </mxGeometry>
        </mxCell>
        <mxCell id="SKF5G5WxIKWwgrvv22xS-30" value="&lt;font style=&quot;font-size: 16px;&quot;&gt;true&lt;/font&gt;" style="text;html=1;align=center;verticalAlign=middle;resizable=0;points=[];autosize=1;strokeColor=none;fillColor=none;fontColor=#46495D;" vertex="1" parent="1">
          <mxGeometry x="313" y="570" width="50" height="30" as="geometry" />
        </mxCell>
        <mxCell id="SKF5G5WxIKWwgrvv22xS-31" value="&lt;font style=&quot;font-size: 16px;&quot;&gt;true&lt;/font&gt;" style="text;html=1;align=center;verticalAlign=middle;resizable=0;points=[];autosize=1;strokeColor=none;fillColor=none;fontColor=#46495D;" vertex="1" parent="1">
          <mxGeometry x="463" y="690" width="50" height="30" as="geometry" />
        </mxCell>
        <mxCell id="SKF5G5WxIKWwgrvv22xS-32" value="" style="endArrow=classic;html=1;rounded=0;strokeColor=#788AA3;fontColor=#46495D;fillColor=#B2C9AB;exitX=0.5;exitY=1;exitDx=0;exitDy=0;" edge="1" parent="1" source="SKF5G5WxIKWwgrvv22xS-23" target="SKF5G5WxIKWwgrvv22xS-16">
          <mxGeometry width="50" height="50" relative="1" as="geometry">
            <mxPoint x="278" y="670" as="sourcePoint" />
            <mxPoint x="328" y="620" as="targetPoint" />
          </mxGeometry>
        </mxCell>
        <mxCell id="SKF5G5WxIKWwgrvv22xS-37" value="get node from queue" style="rounded=1;whiteSpace=wrap;html=1;strokeColor=#788AA3;fontColor=#46495D;fillColor=#B2C9AB;fontSize=16;fontFamily=Comic Sans MS;" vertex="1" parent="1">
          <mxGeometry x="336" y="400" width="154" height="40" as="geometry" />
        </mxCell>
        <mxCell id="SKF5G5WxIKWwgrvv22xS-39" value="" style="endArrow=classic;html=1;rounded=0;strokeColor=#788AA3;fontColor=#46495D;fillColor=#B2C9AB;exitX=0.5;exitY=1;exitDx=0;exitDy=0;exitPerimeter=0;entryX=0.5;entryY=0;entryDx=0;entryDy=0;" edge="1" parent="1" source="SKF5G5WxIKWwgrvv22xS-13" target="SKF5G5WxIKWwgrvv22xS-37">
          <mxGeometry width="50" height="50" relative="1" as="geometry">
            <mxPoint x="320" y="440" as="sourcePoint" />
            <mxPoint x="370" y="390" as="targetPoint" />
          </mxGeometry>
        </mxCell>
        <mxCell id="SKF5G5WxIKWwgrvv22xS-40" value="" style="endArrow=classic;html=1;rounded=0;strokeColor=#788AA3;fontColor=#46495D;fillColor=#B2C9AB;exitX=0.5;exitY=1;exitDx=0;exitDy=0;entryX=0.5;entryY=0;entryDx=0;entryDy=0;" edge="1" parent="1" source="SKF5G5WxIKWwgrvv22xS-37" target="SKF5G5WxIKWwgrvv22xS-19">
          <mxGeometry width="50" height="50" relative="1" as="geometry">
            <mxPoint x="320" y="440" as="sourcePoint" />
            <mxPoint x="370" y="390" as="targetPoint" />
          </mxGeometry>
        </mxCell>
        <mxCell id="SKF5G5WxIKWwgrvv22xS-42" value="" style="endArrow=classic;html=1;rounded=0;strokeColor=#788AA3;fontColor=#46495D;fillColor=#B2C9AB;exitX=1;exitY=0.5;exitDx=0;exitDy=0;" edge="1" parent="1" source="SKF5G5WxIKWwgrvv22xS-20">
          <mxGeometry width="50" height="50" relative="1" as="geometry">
            <mxPoint x="484" y="609.9999999999999" as="sourcePoint" />
            <mxPoint x="410" y="660" as="targetPoint" />
            <Array as="points">
              <mxPoint x="490" y="600" />
              <mxPoint x="490" y="660" />
            </Array>
          </mxGeometry>
        </mxCell>
        <mxCell id="SKF5G5WxIKWwgrvv22xS-43" value="" style="endArrow=classic;html=1;rounded=0;strokeColor=#788AA3;fontColor=#46495D;fillColor=#B2C9AB;exitX=0;exitY=0.5;exitDx=0;exitDy=0;" edge="1" parent="1" source="SKF5G5WxIKWwgrvv22xS-23">
          <mxGeometry width="50" height="50" relative="1" as="geometry">
            <mxPoint x="390" y="740" as="sourcePoint" />
            <mxPoint x="410" y="780" as="targetPoint" />
            <Array as="points">
              <mxPoint x="330" y="720" />
              <mxPoint x="330" y="780" />
            </Array>
          </mxGeometry>
        </mxCell>
        <mxCell id="SKF5G5WxIKWwgrvv22xS-44" value="&lt;span style=&quot;font-size: 16px;&quot;&gt;f&lt;/span&gt;&lt;span style=&quot;font-size: 16px; background-color: initial;&quot;&gt;alse&lt;/span&gt;" style="text;html=1;align=center;verticalAlign=middle;resizable=0;points=[];autosize=1;strokeColor=none;fillColor=none;fontColor=#46495D;" vertex="1" parent="1">
          <mxGeometry x="440" y="620" width="60" height="30" as="geometry" />
        </mxCell>
        <mxCell id="SKF5G5WxIKWwgrvv22xS-45" value="&lt;span style=&quot;font-size: 16px;&quot;&gt;f&lt;/span&gt;&lt;span style=&quot;font-size: 16px; background-color: initial;&quot;&gt;alse&lt;/span&gt;" style="text;html=1;align=center;verticalAlign=middle;resizable=0;points=[];autosize=1;strokeColor=none;fillColor=none;fontColor=#46495D;" vertex="1" parent="1">
          <mxGeometry x="320" y="740" width="60" height="30" as="geometry" />
        </mxCell>
      </root>
    </mxGraphModel>
  </diagram>
</mxfile>
